<svg xmlns="http://www.w3.org/2000/svg" viewBox="0 0 800 600" width="800" height="600" role="img" aria-label="Después: impecable">
  <defs>
    <radialGradient id="clean" cx="50%" cy="28%" r="85%">
      <stop offset="0" stop-color="#eaf1fe"/>
      <stop offset="1" stop-color="#ffffff"/>
    </radialGradient>
  </defs>
  <rect width="800" height="600" fill="url(#clean)"/>
  <circle cx="400" cy="240" r="170" fill="#0b5fe6" opacity="0.08"/>
  <g fill="#0b5fe6" opacity="0.85">
    <path d="M180 150 l8 20 20 8 -20 8 -8 20 -8 -20 -20 -8 20 -8 z"/>
    <path d="M630 220 l6 14 14 6 -14 6 -6 14 -6 -14 -14 -6 14 -6 z"/>
    <path d="M560 110 l5 12 12 5 -12 5 -5 12 -5 -12 -12 -5 12 -5 z"/>
  </g>
  <text x="400" y="320" font-family="Arial, sans-serif" font-size="52" font-weight="800" letter-spacing="2" fill="#0b5fe6" text-anchor="middle">IMPECABLE</text>
</svg>
