<svg xmlns="http://www.w3.org/2000/svg" viewBox="3 772 1995 457"><path d="M 109.250 786.641 C 108.563 786.930, 108 787.767, 108 788.500 C 108 789.233, 107.525 789.992, 106.945 790.185 C 106.365 790.378, 105.485 793.003, 104.989 796.018 C 103.684 803.952, 101.417 813.341, 100.268 815.571 C 99.721 816.632, 98.965 819.525, 98.587 822 C 98.209 824.475, 97.279 828.525, 96.520 831 C 94.954 836.103, 93.175 843.383, 91.876 850 C 91.390 852.475, 90.687 855.175, 90.314 856 C 89.940 856.825, 89.075 859.975, 88.391 863 C 86.608 870.894, 85.069 876.829, 83.431 882.134 C 82.644 884.683, 82 888.171, 82 889.884 C 82 891.598, 81.596 893, 81.103 893 C 80.609 893, 79.703 895.887, 79.088 899.416 C 78.474 902.944, 77.302 907.726, 76.485 910.041 C 75.668 912.357, 75 915.507, 75 917.042 C 75 918.577, 74.556 919.983, 74.014 920.167 C 73.471 920.350, 72.754 922.750, 72.419 925.500 C 72.084 928.250, 71.196 931.878, 70.447 933.563 C 69.697 935.248, 68.768 938.597, 68.383 941.004 C 67.998 943.412, 67.082 946.533, 66.348 947.941 C 65.613 949.348, 65.010 952.136, 65.006 954.136 C 65.003 956.135, 64.328 959.060, 63.506 960.636 C 62.685 962.211, 62.010 964.876, 62.006 966.559 C 62.003 968.241, 61.339 970.491, 60.532 971.559 C 58.880 973.743, 58.482 979, 59.969 979 C 61.001 979, 66.545 976.099, 71.500 972.967 C 73.150 971.924, 77.316 969.656, 80.758 967.927 C 84.200 966.198, 87.264 964.382, 87.567 963.892 C 87.870 963.401, 89.681 963, 91.590 963 C 93.754 963, 95.280 962.435, 95.638 961.500 C 96.015 960.519, 97.573 960, 100.142 960 C 102.303 960, 105.123 959.311, 106.409 958.468 C 107.695 957.625, 111.166 956.683, 114.124 956.373 C 117.081 956.064, 120.918 955.178, 122.651 954.405 C 125.006 953.355, 130.696 953, 145.179 953 C 161.097 953, 164.952 952.722, 166.777 951.443 C 168 950.587, 169 949.292, 169 948.566 C 169 947.839, 169.615 946.735, 170.366 946.111 C 171.179 945.436, 171.939 942.100, 172.241 937.875 C 172.521 933.969, 173.191 930.487, 173.731 930.137 C 174.271 929.786, 174.951 926.458, 175.242 922.740 C 175.533 919.022, 176.214 915.422, 176.755 914.740 C 177.297 914.058, 178.057 910.575, 178.445 907 C 178.833 903.425, 179.749 899.150, 180.481 897.500 C 181.212 895.850, 182.070 892.028, 182.387 889.006 C 182.704 885.984, 183.422 883.359, 183.982 883.173 C 184.542 882.986, 185 880.816, 185 878.351 C 185 875.886, 185.540 872.886, 186.201 871.684 C 186.862 870.483, 187.542 868.600, 187.713 867.500 C 187.884 866.400, 188.229 864.938, 188.480 864.250 C 188.840 863.265, 204.629 863, 262.846 863 C 327.323 863, 336.914 863.191, 338 864.500 C 338.685 865.325, 340.527 866, 342.093 866 C 346.110 866, 355 875.116, 355 879.235 C 355 880.834, 355.675 882.818, 356.500 883.643 C 358.224 885.367, 358.641 897.959, 357.028 899.572 C 356.494 900.106, 355.757 903.909, 355.392 908.022 C 355.027 912.135, 354.380 915.950, 353.956 916.500 C 353.532 917.050, 352.693 920.174, 352.091 923.442 C 351.489 926.710, 350.604 929.635, 350.124 929.942 C 349.644 930.249, 348.920 932.075, 348.514 934 C 348.109 935.925, 347.213 938.175, 346.523 939 C 345.833 939.825, 344.975 941.737, 344.615 943.250 C 344.256 944.763, 343.520 946, 342.981 946 C 342.441 946, 342 946.689, 342 947.531 C 342 948.374, 341.325 949.322, 340.500 949.638 C 339.675 949.955, 339 950.841, 339 951.607 C 339 952.373, 338.311 953, 337.469 953 C 336.626 953, 335.678 953.675, 335.362 954.500 C 335.045 955.325, 334.159 956, 333.393 956 C 332.627 956, 332 956.340, 332 956.756 C 332 957.172, 330.538 958.101, 328.750 958.822 C 326.963 959.542, 324.022 960.777, 322.216 961.566 C 319.478 962.762, 308.172 963.006, 254.216 963.033 C 192.406 963.065, 189.399 963.151, 187.250 964.944 C 186.012 965.976, 184.986 967.873, 184.968 969.160 C 184.951 970.447, 184.276 972.374, 183.468 973.441 C 182.661 974.509, 182 976.820, 182 978.576 C 182 980.333, 181.338 983.960, 180.529 986.635 C 179.719 989.311, 178.564 994.080, 177.961 997.233 C 177.359 1000.385, 176.446 1003.225, 175.933 1003.542 C 175.420 1003.859, 175 1005.739, 175 1007.721 C 175 1009.703, 174.360 1013.614, 173.577 1016.412 C 171.086 1025.319, 170.173 1032.303, 171.268 1034.058 C 172.169 1035.501, 177.277 1035.734, 217.890 1036.184 C 263.781 1036.693, 350.918 1035.730, 356.500 1034.652 C 358.150 1034.334, 362.538 1033.696, 366.252 1033.235 C 369.966 1032.773, 373.543 1031.857, 374.202 1031.198 C 374.861 1030.539, 376.186 1030, 377.147 1030 C 378.925 1030, 387.721 1025.673, 389.450 1023.948 C 389.972 1023.426, 391.224 1023, 392.231 1023 C 393.239 1023, 394.322 1022.325, 394.638 1021.500 C 394.955 1020.675, 395.855 1020, 396.638 1020 C 397.422 1020, 398.322 1019.325, 398.638 1018.500 C 398.955 1017.675, 399.721 1017, 400.340 1017 C 401.638 1017, 411.500 1006.745, 412.362 1004.500 C 412.678 1003.675, 413.401 1003, 413.969 1003 C 414.536 1003, 415 1002.311, 415 1001.469 C 415 1000.626, 415.648 999.689, 416.439 999.385 C 417.230 999.081, 418.158 997.558, 418.500 996 C 418.842 994.442, 419.770 992.919, 420.561 992.615 C 421.352 992.311, 422 991.181, 422 990.103 C 422 989.025, 422.675 987.468, 423.500 986.643 C 424.325 985.818, 425 984.247, 425 983.152 C 425 982.058, 425.636 979.888, 426.413 978.331 C 428.098 974.953, 431.674 963.015, 432.580 957.739 C 432.936 955.670, 433.626 953.731, 434.113 953.430 C 434.601 953.129, 434.998 950.996, 434.995 948.691 C 434.992 946.386, 435.640 942.475, 436.434 940 C 437.228 937.525, 438.432 932.892, 439.110 929.703 C 439.787 926.515, 440.715 923.676, 441.171 923.394 C 441.627 923.113, 442 920.749, 442 918.141 C 442 915.533, 442.488 912.912, 443.084 912.316 C 443.681 911.719, 444.397 908.367, 444.675 904.866 C 444.954 901.365, 445.816 897.082, 446.591 895.349 C 447.366 893.616, 448 890.898, 448 889.309 C 448 887.720, 448.696 883.746, 449.548 880.478 C 450.399 877.210, 451.512 870.478, 452.021 865.518 C 452.530 860.558, 453.323 854.925, 453.782 853 C 454.757 848.915, 454.703 840.947, 453.689 839.307 C 453.303 838.682, 452.722 835.319, 452.399 831.835 C 451.877 826.220, 446.916 813.362, 443.781 809.500 C 440.837 805.873, 437.979 802.996, 437.298 802.972 C 436.859 802.957, 435.228 801.647, 433.673 800.061 C 432.118 798.476, 429.530 796.634, 427.923 795.968 C 426.315 795.302, 425 794.362, 425 793.879 C 425 793.395, 423.762 792.986, 422.250 792.968 C 420.738 792.951, 418.626 792.276, 417.559 791.468 C 416.491 790.661, 414.466 789.995, 413.059 789.989 C 411.651 789.983, 408.250 789.205, 405.500 788.259 C 400.874 786.669, 389.658 786.524, 255.500 786.328 C 175.750 786.211, 109.938 786.352, 109.250 786.641 M 951.073 909.908 C 940.328 910.364, 935.523 910.932, 935.240 911.781 C 935.016 912.452, 933.441 913, 931.740 913 C 928.340 913, 912 920.473, 912 922.029 C 912 922.563, 911.550 923, 911 923 C 910.450 923, 908.200 924.800, 906 927 C 903.800 929.200, 902 931.450, 902 932 C 902 932.550, 901.527 933, 900.949 933 C 900.371 933, 899.240 934.575, 898.436 936.500 C 897.631 938.425, 896.529 940, 895.987 940 C 895.444 940, 895 941.350, 895 943 C 895 944.650, 894.635 946, 894.189 946 C 893.743 946, 892.785 948.362, 892.060 951.250 C 891.335 954.138, 890.350 956.996, 889.871 957.602 C 889.392 958.209, 888.713 961.584, 888.363 965.102 C 888.012 968.621, 887.346 971.985, 886.883 972.578 C 886.420 973.171, 885.618 976.643, 885.101 980.294 C 884.584 983.944, 883.833 987.461, 883.433 988.109 C 883.032 988.757, 882.510 991.135, 882.272 993.394 C 882.035 995.652, 881.201 1000.340, 880.420 1003.812 C 878.540 1012.171, 878.623 1020.356, 880.635 1024.849 C 881.534 1026.857, 882.997 1030.176, 883.885 1032.224 C 884.773 1034.273, 886.032 1035.960, 886.683 1035.974 C 887.333 1035.988, 888.151 1036.900, 888.500 1038 C 888.849 1039.100, 889.779 1040, 890.567 1040 C 891.355 1040, 892.868 1040.787, 893.928 1041.750 C 897.694 1045.167, 898.932 1046, 900.246 1046 C 900.978 1046, 903.300 1046.878, 905.406 1047.952 C 907.891 1049.219, 912.090 1050.074, 917.368 1050.388 C 921.840 1050.653, 934.641 1051.438, 945.814 1052.131 C 962.448 1053.164, 968.698 1053.152, 980.314 1052.068 C 988.116 1051.339, 997.200 1050.594, 1000.500 1050.412 C 1009.157 1049.935, 1014.872 1049.016, 1015.500 1048 C 1015.801 1047.514, 1018.031 1046.818, 1020.456 1046.454 C 1022.881 1046.091, 1025.107 1045.165, 1025.401 1044.397 C 1025.696 1043.628, 1027.090 1043, 1028.500 1043 C 1029.910 1043, 1031.322 1042.325, 1031.638 1041.500 C 1031.955 1040.675, 1032.616 1040, 1033.107 1040 C 1034.317 1040, 1044.550 1029.614, 1045.322 1027.604 C 1045.660 1026.722, 1046.366 1026, 1046.889 1026 C 1047.413 1026, 1048.131 1024.681, 1048.485 1023.069 C 1048.839 1021.457, 1049.775 1019.602, 1050.564 1018.947 C 1051.354 1018.291, 1052 1016.723, 1052 1015.461 C 1052 1014.199, 1052.475 1013.008, 1053.055 1012.815 C 1053.635 1012.622, 1054.504 1009.997, 1054.987 1006.982 C 1055.469 1003.967, 1056.327 999.700, 1056.893 997.500 C 1060.090 985.073, 1062.027 976.204, 1062.024 974 C 1062.023 972.625, 1062.692 969.291, 1063.511 966.591 C 1065.191 961.054, 1065.666 933, 1064.079 933 C 1063.573 933, 1062.884 931.747, 1062.548 930.217 C 1061.884 927.195, 1056.013 920, 1054.211 920 C 1053.600 920, 1052.740 919.405, 1052.300 918.679 C 1051.384 917.165, 1043.084 913.007, 1040.934 912.985 C 1040.145 912.977, 1037.595 912.307, 1035.266 911.496 C 1030.350 909.783, 977.517 908.787, 951.073 909.908 M 1147.555 909.922 C 1137.676 910.418, 1132.478 911.067, 1132.221 911.836 C 1132.008 912.476, 1130.287 913, 1128.397 913 C 1124.759 913, 1108 920.450, 1108 922.067 C 1108 922.580, 1107.325 923, 1106.500 923 C 1105.675 923, 1105 923.363, 1105 923.807 C 1105 924.250, 1102.918 926.838, 1100.374 929.557 C 1097.830 932.275, 1095.311 935.737, 1094.776 937.250 C 1094.242 938.763, 1093.448 940, 1093.013 940 C 1092.578 940, 1091.927 941.575, 1091.566 943.500 C 1091.205 945.425, 1090.538 947, 1090.084 947 C 1089.629 947, 1088.972 949.138, 1088.622 951.750 C 1088.272 954.362, 1087.314 957.789, 1086.493 959.364 C 1085.672 960.940, 1085 963.643, 1085 965.371 C 1085 967.099, 1084.522 970.085, 1083.937 972.007 C 1083.353 973.928, 1082.487 977.750, 1082.015 980.500 C 1081.542 983.250, 1080.633 987.525, 1079.995 990 C 1079.357 992.475, 1078.707 995.850, 1078.550 997.500 C 1078.394 999.150, 1077.736 1003.916, 1077.089 1008.091 C 1075.925 1015.591, 1076.031 1022.364, 1077.331 1023.664 C 1077.699 1024.032, 1078 1025.608, 1078 1027.167 C 1078 1028.725, 1078.900 1030.900, 1080 1032 C 1081.100 1033.100, 1082.008 1034.338, 1082.017 1034.750 C 1082.044 1035.896, 1086.635 1040, 1087.891 1040 C 1088.501 1040, 1089 1040.675, 1089 1041.500 C 1089 1042.325, 1089.868 1043, 1090.929 1043 C 1091.989 1043, 1093.500 1043.642, 1094.285 1044.428 C 1095.070 1045.213, 1097.374 1046.167, 1099.405 1046.548 C 1101.436 1046.929, 1103.662 1047.805, 1104.352 1048.494 C 1105.073 1049.216, 1109.610 1050.010, 1115.052 1050.365 C 1120.249 1050.705, 1128.100 1051.413, 1132.500 1051.938 C 1143.201 1053.214, 1180.984 1053.243, 1188.500 1051.980 C 1191.800 1051.426, 1196.750 1050.749, 1199.500 1050.476 C 1209.348 1049.498, 1212.961 1048.872, 1213.466 1048.056 C 1213.747 1047.600, 1215.623 1046.918, 1217.633 1046.541 C 1219.643 1046.164, 1221.930 1045.213, 1222.715 1044.428 C 1223.500 1043.642, 1225.011 1043, 1226.071 1043 C 1227.132 1043, 1228 1042.325, 1228 1041.500 C 1228 1040.667, 1228.889 1040, 1230 1040 C 1231.111 1040, 1232 1039.333, 1232 1038.500 C 1232 1037.675, 1232.675 1037, 1233.500 1037 C 1234.325 1037, 1235 1036.283, 1235 1035.406 C 1235 1034.530, 1235.900 1033.577, 1237 1033.290 C 1238.100 1033.002, 1239 1032.144, 1239 1031.383 C 1239 1030.623, 1239.338 1030, 1239.752 1030 C 1240.601 1030, 1244.512 1022.675, 1245.491 1019.250 C 1245.845 1018.013, 1246.527 1017, 1247.006 1017 C 1247.485 1017, 1248.187 1014.862, 1248.565 1012.250 C 1248.943 1009.638, 1249.623 1007.031, 1250.076 1006.457 C 1251.227 1005.002, 1253.970 992.780, 1254.891 985 C 1255.314 981.425, 1256.159 977.569, 1256.769 976.431 C 1258.682 972.858, 1257.663 970.558, 1253.905 969.970 C 1249.016 969.205, 1175.218 968.793, 1171.941 969.513 C 1168.445 970.281, 1165.904 976.663, 1165.277 986.250 L 1164.836 993 1187.668 993.014 C 1200.226 993.021, 1211.513 993.299, 1212.750 993.630 C 1214.625 994.133, 1214.999 994.923, 1214.994 998.367 C 1214.990 1000.640, 1214.315 1003.789, 1213.494 1005.364 C 1212.672 1006.940, 1212 1008.782, 1212 1009.459 C 1212 1011.151, 1207.714 1016, 1206.218 1016 C 1205.548 1016, 1205 1016.398, 1205 1016.883 C 1205 1017.960, 1202.112 1018.996, 1195.500 1020.291 C 1188.994 1021.566, 1136.041 1021.614, 1129.331 1020.352 C 1124.096 1019.367, 1122.675 1018.590, 1117.778 1014.033 C 1115.270 1011.700, 1115.053 1010.885, 1115.028 1003.700 C 1115.010 998.651, 1115.532 994.871, 1116.510 992.981 C 1117.341 991.374, 1117.927 989.709, 1117.814 989.280 C 1117.376 987.621, 1119.258 976.398, 1120.293 974.500 C 1120.892 973.400, 1121.558 970.475, 1121.771 968 C 1121.985 965.525, 1122.755 962.150, 1123.483 960.500 C 1124.211 958.850, 1125.065 956.029, 1125.382 954.230 C 1125.699 952.432, 1126.530 950.273, 1127.229 949.433 C 1130.647 945.326, 1133.680 943, 1135.617 943 C 1136.793 943, 1138.260 942.392, 1138.877 941.648 C 1141.039 939.043, 1182.488 936.110, 1183.370 938.500 C 1183.600 939.125, 1184.538 939.028, 1185.869 938.242 C 1187.136 937.493, 1188 937.392, 1188 937.992 C 1188 939.474, 1196.733 939.248, 1197.341 937.750 C 1197.722 936.810, 1198.107 936.872, 1198.893 938 C 1199.675 939.122, 1200.388 939.240, 1201.719 938.468 C 1202.769 937.859, 1205.347 937.728, 1208 938.149 C 1210.475 938.542, 1214.638 939.177, 1217.250 939.561 C 1220.265 940.005, 1222 940.760, 1222 941.630 C 1222 942.384, 1222.675 943, 1223.500 943 C 1224.325 943, 1225 943.653, 1225 944.450 C 1225 945.248, 1225.572 946.260, 1226.271 946.700 C 1226.970 947.140, 1228.085 948.737, 1228.750 950.250 L 1229.957 953 1242.077 953 C 1259.532 953, 1262 951.451, 1262 940.497 C 1262 935.705, 1257.694 925.087, 1254.324 921.566 C 1252.709 919.880, 1250.063 917.825, 1248.444 917 C 1246.825 916.175, 1244.905 914.938, 1244.179 914.250 C 1243.452 913.563, 1241.877 912.993, 1240.679 912.985 C 1239.480 912.977, 1236.635 912.321, 1234.357 911.527 C 1229.366 909.788, 1171.517 908.718, 1147.555 909.922 M 1691.500 909.995 C 1684.900 910.373, 1678.233 911.203, 1676.685 911.841 C 1675.137 912.478, 1672.887 913.015, 1671.685 913.034 C 1670.483 913.053, 1667.700 913.937, 1665.500 915 C 1663.300 916.063, 1660.923 916.947, 1660.219 916.966 C 1659.514 916.985, 1658.678 917.675, 1658.362 918.500 C 1658.045 919.325, 1657.196 920, 1656.475 920 C 1654.726 920, 1645 929.840, 1645 931.609 C 1645 932.374, 1644.583 933, 1644.073 933 C 1643.007 933, 1638 943.154, 1638 945.316 C 1638 946.108, 1637.325 948.371, 1636.500 950.346 C 1634.492 955.153, 1634.471 968.918, 1636.468 971.559 C 1637.276 972.626, 1637.951 974.225, 1637.968 975.111 C 1638.010 977.230, 1645.898 985.571, 1648.660 986.416 C 1649.848 986.780, 1651.365 987.735, 1652.032 988.539 C 1652.699 989.342, 1654.733 990, 1656.551 990 C 1658.369 990, 1660.532 990.675, 1661.357 991.500 C 1662.632 992.774, 1667.959 993, 1696.770 993 C 1723.940 993, 1731.658 993.296, 1735.591 994.489 C 1738.291 995.308, 1742.075 995.989, 1744 996.003 C 1749.001 996.038, 1752 997.018, 1752 998.617 C 1752 999.377, 1752.675 1000, 1753.500 1000 C 1754.645 1000, 1754.996 1001.242, 1754.981 1005.250 C 1754.966 1009.327, 1754.296 1011.561, 1751.979 1015.250 C 1750.221 1018.050, 1748.258 1020, 1747.198 1020 C 1746.209 1020, 1744.838 1020.563, 1744.151 1021.250 C 1743.204 1022.198, 1733.242 1022.573, 1702.940 1022.803 C 1667.553 1023.071, 1662.910 1022.928, 1662.382 1021.553 C 1662.054 1020.699, 1661.180 1020, 1660.438 1020 C 1659.697 1020, 1658.803 1018.467, 1658.451 1016.592 C 1657.665 1012.400, 1656.692 1012.071, 1643.033 1011.387 C 1630.841 1010.775, 1624.866 1012.013, 1622.979 1015.540 C 1621.460 1018.377, 1622.185 1032.228, 1623.882 1032.794 C 1624.497 1032.999, 1625 1033.889, 1625 1034.771 C 1625 1036.888, 1629.185 1042.984, 1630.643 1042.993 C 1631.272 1042.997, 1632.070 1043.739, 1632.417 1044.643 C 1632.763 1045.547, 1633.302 1046.031, 1633.614 1045.719 C 1633.926 1045.408, 1636.232 1046.243, 1638.739 1047.576 C 1641.741 1049.172, 1644.938 1050, 1648.100 1050 C 1650.741 1050, 1655.494 1050.675, 1658.661 1051.500 C 1666.787 1053.616, 1725.401 1053.662, 1736.143 1051.561 C 1740.189 1050.769, 1746.589 1049.924, 1750.365 1049.683 C 1754.141 1049.443, 1757.516 1048.784, 1757.865 1048.221 C 1758.214 1047.657, 1760.607 1046.880, 1763.183 1046.495 C 1765.758 1046.109, 1768.107 1045.165, 1768.401 1044.397 C 1768.696 1043.628, 1770.076 1043, 1771.469 1043 C 1773.052 1043, 1774 1042.438, 1774 1041.500 C 1774 1040.675, 1774.471 1040, 1775.047 1040 C 1776.415 1040, 1785 1031.531, 1785 1030.182 C 1785 1029.610, 1785.563 1028.548, 1786.250 1027.821 C 1788.254 1025.703, 1790.799 1017.192, 1792.413 1007.212 C 1793.236 1002.120, 1794.171 997.533, 1794.489 997.018 C 1795.171 995.915, 1792.596 986.967, 1790.187 982.070 C 1788.172 977.974, 1783.115 973.011, 1780.950 973.005 C 1780.098 973.002, 1778.882 972.482, 1778.249 971.849 C 1777.129 970.729, 1774.489 970.130, 1761 967.933 C 1757.425 967.351, 1740.100 966.496, 1722.500 966.033 C 1704.900 965.570, 1688.925 964.930, 1687 964.611 C 1679.655 963.394, 1676.668 962.407, 1676.001 960.979 C 1675.621 960.165, 1674.791 958.494, 1674.155 957.264 C 1672.735 954.514, 1672.661 951.327, 1674 950.500 C 1674.550 950.160, 1675 948.544, 1675 946.910 C 1675 945.190, 1675.632 943.695, 1676.500 943.362 C 1677.325 943.045, 1678 942.159, 1678 941.393 C 1678 940.627, 1678.606 940, 1679.346 940 C 1680.087 940, 1682.224 939.212, 1684.096 938.250 C 1687.094 936.709, 1691.373 936.466, 1720 936.213 C 1737.875 936.055, 1754.306 936.179, 1756.513 936.489 C 1761.169 937.142, 1767.331 942.198, 1768.332 946.188 L 1768.979 948.766 1783.562 948.854 C 1801.870 948.966, 1802.340 948.688, 1802.319 937.770 C 1802.309 932.233, 1801.733 929.254, 1799.903 925.270 C 1798.581 922.394, 1796.938 920.032, 1796.250 920.020 C 1795.563 920.009, 1795 919.610, 1795 919.133 C 1795 917.630, 1787.153 913, 1784.605 913 C 1783.264 913, 1782.002 912.506, 1781.800 911.901 C 1781.598 911.294, 1777.424 910.457, 1772.467 910.030 C 1761.456 909.081, 1707.893 909.058, 1691.500 909.995 M 1873.259 909.958 C 1864.237 910.353, 1858.575 911.025, 1857.809 911.791 C 1857.144 912.456, 1855.354 913, 1853.831 913 C 1848.086 913, 1829 925.262, 1829 928.952 C 1829 929.529, 1828.325 930, 1827.500 930 C 1826.675 930, 1826 930.620, 1826 931.378 C 1826 932.135, 1825.362 933.284, 1824.583 933.931 C 1823.804 934.578, 1822.042 938.592, 1820.668 942.852 C 1818.522 949.506, 1818.196 952.235, 1818.356 962.217 C 1818.501 971.281, 1818.896 974.239, 1820.153 975.668 C 1821.039 976.676, 1822.056 978.400, 1822.414 979.500 C 1823.044 981.438, 1830.101 987, 1831.930 987 C 1832.427 987, 1833.006 987.518, 1833.217 988.151 C 1833.428 988.784, 1836.166 989.515, 1839.300 989.775 C 1843.243 990.102, 1845 990.672, 1845 991.624 C 1845 992.766, 1851.005 993.004, 1880.250 993.024 C 1901.479 993.038, 1917.091 993.464, 1919.500 994.093 C 1924.007 995.272, 1925.882 995.656, 1931.250 996.501 C 1933.436 996.845, 1935 997.653, 1935 998.438 C 1935 999.180, 1935.675 1000.045, 1936.500 1000.362 C 1938.139 1000.991, 1938.634 1007.490, 1937.113 1008.430 C 1936.626 1008.731, 1935.926 1010.582, 1935.558 1012.542 C 1935.190 1014.501, 1934.239 1016.355, 1933.445 1016.660 C 1932.650 1016.964, 1931.997 1017.728, 1931.993 1018.357 C 1931.989 1018.986, 1929.587 1020.288, 1926.656 1021.250 C 1921.968 1022.789, 1916.864 1023, 1884.235 1023 C 1852.598 1023, 1846.922 1022.779, 1845.643 1021.500 C 1844.818 1020.675, 1843.751 1020, 1843.272 1020 C 1842.794 1020, 1841.843 1018.454, 1841.159 1016.564 C 1840.258 1014.070, 1839.037 1012.850, 1836.708 1012.114 C 1833.249 1011.021, 1813.623 1011.311, 1808.165 1012.536 L 1804.831 1013.284 1805.165 1024.047 C 1805.497 1034.709, 1805.531 1034.840, 1808.750 1037.914 C 1810.537 1039.621, 1812 1041.463, 1812 1042.009 C 1812 1042.554, 1812.675 1043, 1813.500 1043 C 1814.325 1043, 1815 1043.675, 1815 1044.500 C 1815 1045.325, 1815.738 1046, 1816.640 1046 C 1817.543 1046, 1820.130 1046.850, 1822.390 1047.889 C 1824.651 1048.928, 1829.650 1050.358, 1833.500 1051.068 C 1842.795 1052.782, 1907.210 1053.523, 1915.537 1052.013 C 1918.817 1051.418, 1925.993 1050.518, 1931.484 1050.013 C 1936.975 1049.508, 1941.625 1048.624, 1941.817 1048.048 C 1942.010 1047.471, 1942.885 1047, 1943.762 1047 C 1946.132 1047, 1952 1044.720, 1952 1043.799 C 1952 1043.360, 1952.868 1043, 1953.929 1043 C 1954.989 1043, 1956.532 1042.325, 1957.357 1041.500 C 1958.182 1040.675, 1959.175 1040, 1959.564 1040 C 1960.578 1040, 1965 1035.077, 1965 1033.948 C 1965 1033.427, 1965.444 1033, 1965.987 1033 C 1966.529 1033, 1967.672 1031.537, 1968.526 1029.750 C 1969.380 1027.963, 1971.039 1024.700, 1972.212 1022.500 C 1976.127 1015.158, 1978.005 997.406, 1975.881 987.829 C 1974.830 983.092, 1973.687 980.922, 1970.637 977.872 C 1968.492 975.727, 1965.671 973.705, 1964.368 973.378 C 1963.066 973.051, 1962 972.396, 1962 971.923 C 1962 971.450, 1961.325 971.322, 1960.500 971.638 C 1959.675 971.955, 1959 971.774, 1959 971.237 C 1959 970.700, 1956.862 969.947, 1954.250 969.565 C 1951.638 969.183, 1947.025 968.445, 1944 967.927 C 1940.975 967.408, 1922.975 966.557, 1904 966.035 C 1863.143 964.913, 1860.250 964.423, 1858.067 958.258 C 1856.873 954.886, 1856.844 953.277, 1857.889 948.606 C 1858.696 945, 1859.653 943, 1860.572 943 C 1861.357 943, 1862.002 942.438, 1862.004 941.750 C 1862.006 941.063, 1864.143 939.600, 1866.754 938.500 C 1871.202 936.626, 1873.749 936.500, 1907.331 936.500 C 1938.647 936.500, 1943.309 936.697, 1944.331 938.062 C 1944.974 938.921, 1946.352 939.944, 1947.393 940.336 C 1948.434 940.727, 1949.034 941.299, 1948.726 941.607 C 1948.419 941.915, 1948.973 942.973, 1949.958 943.958 C 1950.944 944.944, 1951.953 946.360, 1952.202 947.106 C 1952.517 948.051, 1955.206 948.604, 1961.077 948.931 C 1976.747 949.804, 1979.324 949.629, 1982.219 947.500 C 1984.780 945.616, 1984.939 945.034, 1984.969 937.461 C 1985.012 926.347, 1982.459 921.515, 1973.235 915.256 C 1971.407 914.015, 1968.896 913, 1967.656 913 C 1966.415 913, 1964.899 912.499, 1964.286 911.886 C 1961.753 909.353, 1911.404 908.286, 1873.259 909.958 M 537.243 917.208 C 536.062 921.219, 534.878 926.300, 534.613 928.500 C 533.973 933.812, 532.154 942.338, 530.346 948.500 C 529.539 951.250, 528.618 955.638, 528.300 958.250 C 527.982 960.862, 527.362 963, 526.923 963 C 526.484 963, 526.098 963.788, 526.065 964.750 C 526.001 966.614, 524.806 974.373, 522.946 985 C 522.320 988.575, 521.217 992.891, 520.496 994.592 C 519.774 996.292, 518.856 1000.342, 518.456 1003.592 C 518.057 1006.841, 517.360 1009.740, 516.907 1010.033 C 516.455 1010.326, 515.647 1013.701, 515.110 1017.533 C 514.041 1025.165, 512.642 1031.766, 510.435 1039.588 C 508.737 1045.607, 508.615 1048.644, 510.036 1049.522 C 511.272 1050.286, 537.645 1050.853, 542.030 1050.209 C 544.464 1049.852, 545.218 1049.159, 545.678 1046.858 C 545.997 1045.263, 546.650 1043.716, 547.129 1043.420 C 547.608 1043.124, 548 1041.212, 548 1039.171 C 548 1037.130, 548.852 1032.319, 549.893 1028.480 C 550.934 1024.641, 552.091 1018.913, 552.465 1015.750 L 553.144 1010 570.822 1009.867 C 580.545 1009.794, 599.075 1009.794, 612 1009.867 C 632.861 1009.984, 636.511 1009.758, 644.500 1007.853 C 649.450 1006.672, 654.175 1005.476, 655 1005.194 C 655.825 1004.913, 656.837 1004.754, 657.250 1004.841 C 657.663 1004.929, 658 1004.550, 658 1004 C 658 1003.450, 658.845 1003, 659.878 1003 C 660.910 1003, 662.315 1002.325, 663 1001.500 C 663.685 1000.675, 664.752 999.994, 665.372 999.988 C 666.844 999.971, 675 992.391, 675 991.040 C 675 990.468, 675.623 990, 676.383 990 C 677.144 990, 678.016 989.212, 678.322 988.250 C 678.995 986.127, 682.035 981.064, 683.750 979.209 C 684.438 978.465, 685 976.850, 685 975.620 C 685 974.389, 685.661 972.509, 686.468 971.441 C 687.276 970.374, 687.951 968.292, 687.968 966.815 C 687.986 965.338, 688.525 962.863, 689.166 961.315 C 689.808 959.767, 690.402 958.275, 690.487 958 C 690.571 957.725, 690.989 954.121, 691.415 949.990 C 692.072 943.621, 691.842 941.268, 689.900 934.490 C 688.641 930.096, 687.023 926.140, 686.305 925.700 C 685.587 925.260, 685.003 924.360, 685.006 923.700 C 685.015 922.202, 677.971 916, 676.261 916 C 675.567 916, 675 915.570, 675 915.045 C 675 914.520, 673.313 913.821, 671.250 913.491 C 669.188 913.161, 666.600 912.353, 665.500 911.695 C 664.021 910.811, 647.341 910.424, 601.446 910.208 L 539.392 909.916 537.243 917.208 M 718.419 913.750 C 718.049 915.813, 717.204 918.175, 716.541 919 C 715.878 919.825, 715.252 922.300, 715.150 924.500 C 715.047 926.700, 714.333 930.750, 713.563 933.500 C 712.793 936.250, 711.669 941.200, 711.065 944.500 C 708.044 961.006, 706.854 966.473, 706.071 967.441 C 705.600 968.023, 705.001 970.525, 704.741 973 C 704.185 978.276, 702.518 986.890, 700.287 996 C 699.412 999.575, 698.380 1004.525, 697.993 1007 C 697.606 1009.475, 696.775 1012.767, 696.145 1014.315 C 695.515 1015.863, 695 1018.811, 695 1020.865 C 695 1022.919, 694.575 1025.027, 694.056 1025.550 C 693.537 1026.072, 692.674 1030.040, 692.138 1034.368 C 691.603 1038.695, 690.757 1042.643, 690.259 1043.141 C 689.761 1043.639, 689.542 1045.334, 689.773 1046.908 C 690.290 1050.428, 692.743 1050.973, 708.125 1050.989 C 723.099 1051.005, 724.543 1050.601, 726.436 1045.867 C 727.296 1043.718, 728 1040.497, 728 1038.710 C 728 1036.922, 728.900 1032.212, 730 1028.243 C 731.100 1024.273, 732 1020.068, 732 1018.897 C 732 1017.726, 732.776 1014.583, 733.725 1011.912 C 735.372 1007.273, 735.653 1007.025, 739.961 1006.379 C 744.969 1005.628, 780.640 1006.541, 783.095 1007.483 C 783.951 1007.812, 785.921 1010.087, 787.471 1012.540 C 789.021 1014.993, 790.622 1017, 791.028 1017 C 791.434 1017, 792.051 1017.788, 792.399 1018.750 C 793.553 1021.941, 795.832 1025.326, 797.427 1026.219 C 798.292 1026.703, 799 1027.574, 799 1028.155 C 799 1028.735, 800.350 1031.210, 802 1033.655 C 803.650 1036.100, 805 1038.528, 805 1039.050 C 805 1039.573, 805.639 1040, 806.421 1040 C 807.202 1040, 808.129 1041.312, 808.482 1042.916 C 808.834 1044.521, 809.770 1046.081, 810.561 1046.385 C 811.352 1046.689, 812 1047.575, 812 1048.355 C 812 1050.281, 819.061 1051.275, 831.500 1051.100 C 842.838 1050.941, 855.028 1050.101, 856.163 1049.399 C 856.860 1048.968, 855.251 1044.175, 854.015 1043 C 852.331 1041.400, 848 1034.967, 848 1034.067 C 848 1033.480, 847.589 1033, 847.086 1033 C 846.583 1033, 844.836 1030.862, 843.204 1028.250 C 841.572 1025.638, 839.381 1022.600, 838.336 1021.500 C 837.291 1020.400, 835.369 1017.700, 834.065 1015.500 C 832.760 1013.300, 831.089 1011.002, 830.350 1010.392 C 829.611 1009.783, 828.724 1007.871, 828.378 1006.142 C 827.769 1003.096, 827.857 1003, 831.268 1003 C 833.308 1003, 835.005 1002.430, 835.307 1001.643 C 835.593 1000.897, 837.731 1000.031, 840.058 999.719 C 842.385 999.407, 844.561 998.779, 844.894 998.324 C 845.227 997.869, 846.737 996.859, 848.250 996.079 C 849.763 995.300, 851 994.288, 851 993.831 C 851 993.374, 851.900 993, 853 993 C 854.111 993, 855 992.333, 855 991.500 C 855 990.675, 855.675 990, 856.500 990 C 857.325 990, 858 989.632, 858 989.182 C 858 988.732, 859.575 986.594, 861.499 984.432 C 863.424 982.269, 864.999 979.473, 864.999 978.219 C 865 976.964, 865.675 975.678, 866.500 975.362 C 867.325 975.045, 868 973.993, 868 973.023 C 868 972.054, 868.941 968.389, 870.091 964.880 C 871.764 959.776, 872.202 955.801, 872.282 945 C 872.374 932.440, 872.214 931.221, 869.985 927.500 C 867.222 922.889, 860.342 916, 858.499 916 C 857.809 916, 856.721 915.369, 856.081 914.597 C 855.441 913.826, 853.023 912.976, 850.708 912.708 C 848.394 912.440, 844.700 911.732, 842.500 911.134 C 839.835 910.410, 818.569 910.040, 778.795 910.024 L 719.091 910 718.419 913.750 M 1295.485 911.250 C 1292.755 918.800, 1292 921.873, 1292 925.426 C 1292 927.722, 1291.460 930.140, 1290.800 930.800 C 1290.140 931.460, 1289.927 932, 1290.326 932 C 1290.725 932, 1290.365 933.328, 1289.526 934.950 C 1288.687 936.573, 1287.997 939.611, 1287.994 941.700 C 1287.990 943.790, 1287.315 946.789, 1286.494 948.364 C 1285.672 949.940, 1285 953.337, 1285 955.914 C 1285 958.491, 1284.553 961.047, 1284.006 961.594 C 1283.460 962.140, 1282.723 965.493, 1282.368 969.044 C 1282.014 972.595, 1281.263 976.396, 1280.698 977.491 C 1280.134 978.585, 1279.550 980.385, 1279.400 981.491 C 1279.251 982.596, 1278.408 987.100, 1277.528 991.500 C 1276.648 995.900, 1275.574 1001.648, 1275.140 1004.274 C 1274.707 1006.899, 1273.823 1009.577, 1273.176 1010.224 C 1272.529 1010.871, 1272 1013.094, 1272 1015.165 C 1272 1017.236, 1271.358 1020.858, 1270.573 1023.215 C 1269.370 1026.829, 1267.785 1034.853, 1267.554 1038.500 C 1267.519 1039.050, 1266.958 1040.431, 1266.307 1041.569 C 1265.656 1042.707, 1265.163 1045.032, 1265.212 1046.735 C 1265.298 1049.770, 1265.412 1049.840, 1270.900 1050.224 C 1274.976 1050.510, 1384.487 1050.354, 1405.689 1050.033 C 1407.528 1050.005, 1407.989 1049.241, 1408.578 1045.250 C 1408.963 1042.638, 1409.708 1040.222, 1410.234 1039.882 C 1411.712 1038.927, 1413.111 1024.076, 1411.931 1021.871 C 1410.974 1020.082, 1408.763 1019.999, 1361.715 1019.985 C 1334.647 1019.976, 1311.879 1019.576, 1311.120 1019.095 C 1310.164 1018.490, 1309.934 1017.190, 1310.372 1014.861 C 1310.719 1013.012, 1311.429 1008.252, 1311.949 1004.282 C 1312.470 1000.312, 1313.369 996.179, 1313.948 995.097 C 1314.527 994.016, 1315 991.497, 1315 989.500 C 1315 987.503, 1315.490 984.952, 1316.090 983.832 C 1316.689 982.712, 1317.579 978.804, 1318.066 975.148 C 1318.554 971.491, 1319.594 966.025, 1320.378 963 C 1323.755 949.968, 1325 943.952, 1325 940.657 C 1325 938.724, 1325.602 936.541, 1326.338 935.805 C 1327.074 935.069, 1327.985 931.455, 1328.362 927.773 C 1328.739 924.091, 1329.755 919.824, 1330.619 918.290 C 1331.849 916.107, 1331.958 914.902, 1331.120 912.750 L 1330.050 910 1312.993 910 C 1300.256 910, 1295.823 910.317, 1295.485 911.250 M 1517.740 912.540 C 1516.233 913.938, 1515 915.545, 1515 916.112 C 1515 916.679, 1514.438 917.735, 1513.750 918.460 C 1511.704 920.615, 1509.288 923.656, 1508.864 924.609 C 1507.587 927.483, 1503.665 933, 1502.901 933 C 1502.406 933, 1502 933.689, 1502 934.531 C 1502 935.374, 1501.325 936.322, 1500.500 936.638 C 1499.675 936.955, 1499 937.803, 1499 938.524 C 1499 939.244, 1498.662 939.983, 1498.250 940.167 C 1497.036 940.706, 1492 947.770, 1492 948.933 C 1492 949.520, 1491.250 950, 1490.333 950 C 1489.417 950, 1488.965 950.298, 1489.329 950.662 C 1489.693 951.026, 1488.868 952.796, 1487.495 954.595 C 1486.123 956.394, 1485 958.347, 1485 958.933 C 1485 959.520, 1484.630 960, 1484.178 960 C 1483.239 960, 1478 967.708, 1478 969.090 C 1478 969.590, 1477.626 970, 1477.168 970 C 1476.711 970, 1474.907 972.207, 1473.159 974.904 C 1471.412 977.601, 1468.869 980.864, 1467.508 982.154 C 1466.148 983.444, 1465.027 985.067, 1465.017 985.760 C 1465.008 986.453, 1464.100 987.790, 1463 988.732 C 1461.900 989.674, 1461 991.019, 1461 991.722 C 1461 992.425, 1460.550 993, 1460 993 C 1459.450 993, 1459 993.410, 1459 993.910 C 1459 995.292, 1453.761 1003, 1452.822 1003 C 1452.370 1003, 1452 1003.410, 1452 1003.910 C 1452 1005.292, 1446.761 1013, 1445.822 1013 C 1445.370 1013, 1445 1013.469, 1445 1014.042 C 1445 1015.121, 1444.656 1015.598, 1440.484 1020.302 C 1439.118 1021.842, 1438 1023.707, 1438 1024.445 C 1438 1025.182, 1437.325 1026.045, 1436.500 1026.362 C 1435.675 1026.678, 1435 1027.626, 1435 1028.469 C 1435 1029.311, 1434.630 1030, 1434.178 1030 C 1433.239 1030, 1428 1037.708, 1428 1039.090 C 1428 1039.590, 1427.250 1040, 1426.333 1040 C 1425.417 1040, 1424.953 1040.287, 1425.304 1040.637 C 1425.654 1040.988, 1425.054 1042.520, 1423.970 1044.041 C 1420.838 1048.441, 1421.405 1049.707, 1427.049 1050.917 C 1433.525 1052.306, 1447.968 1052.308, 1455.470 1050.921 C 1461.050 1049.889, 1464.880 1047.262, 1464.967 1044.405 C 1464.985 1043.803, 1465.900 1042.495, 1467 1041.500 C 1468.100 1040.505, 1469 1039.085, 1469 1038.345 C 1469 1037.605, 1469.425 1037, 1469.945 1037 C 1470.846 1037, 1472.695 1034.125, 1474.913 1029.278 C 1475.472 1028.056, 1476.958 1026.806, 1478.215 1026.500 C 1479.472 1026.194, 1499.371 1026.069, 1522.437 1026.222 L 1564.373 1026.500 1565.215 1029.750 C 1565.678 1031.537, 1566.444 1033, 1566.917 1033 C 1567.390 1033, 1568.084 1034.636, 1568.459 1036.636 C 1568.835 1038.635, 1570.010 1041.891, 1571.071 1043.871 C 1572.132 1045.851, 1573 1048.040, 1573 1048.735 C 1573 1049.431, 1574.098 1050, 1575.441 1050 C 1576.784 1050, 1578.202 1050.518, 1578.593 1051.150 C 1579.315 1052.319, 1606.039 1051.673, 1612.348 1050.334 C 1614.924 1049.787, 1615.137 1049.432, 1614.575 1046.615 C 1614.234 1044.902, 1613.515 1043.350, 1612.977 1043.167 C 1612.440 1042.983, 1612 1041.611, 1612 1040.117 C 1612 1038.622, 1611.605 1036.973, 1611.123 1036.450 C 1610.641 1035.928, 1609.481 1033.143, 1608.546 1030.262 C 1607.612 1027.381, 1606.431 1024.767, 1605.924 1024.453 C 1605.416 1024.139, 1605 1023.060, 1605 1022.055 C 1605 1021.051, 1604.328 1018.940, 1603.506 1017.364 C 1602.685 1015.789, 1602.010 1013.487, 1602.006 1012.250 C 1602.003 1011.013, 1601.592 1010, 1601.092 1010 C 1600.593 1010, 1599.608 1007.750, 1598.903 1005 C 1598.199 1002.250, 1597.277 1000, 1596.856 1000 C 1596.435 1000, 1595.806 998.313, 1595.457 996.250 C 1595.109 994.188, 1594.189 991.082, 1593.412 989.349 C 1592.635 987.616, 1591.985 985.591, 1591.966 984.849 C 1591.947 984.107, 1591.063 981.700, 1590 979.500 C 1588.937 977.300, 1588.038 974.600, 1588.002 973.500 C 1587.966 972.400, 1587.276 970.626, 1586.468 969.559 C 1585.661 968.491, 1585 966.665, 1585 965.500 C 1585 964.335, 1584.339 962.509, 1583.532 961.441 C 1582.724 960.374, 1582.034 958.825, 1581.998 958 C 1581.962 957.175, 1581.063 954.700, 1580 952.500 C 1578.937 950.300, 1578.053 947.813, 1578.034 946.973 C 1578.015 946.132, 1577.343 944.507, 1576.541 943.362 C 1575.738 942.216, 1574.972 939.654, 1574.838 937.668 C 1574.705 935.683, 1574.011 933.835, 1573.298 933.561 C 1572.584 933.287, 1572 932.024, 1572 930.754 C 1572 929.484, 1571.389 927.557, 1570.642 926.473 C 1569.895 925.388, 1568.983 922.858, 1568.615 920.850 C 1568.248 918.843, 1567.284 916.651, 1566.474 915.978 C 1565.663 915.305, 1565 913.685, 1565 912.378 L 1565 910 1542.740 910 L 1520.480 910 1517.740 912.540 M 969.268 938.998 C 947.706 939.562, 943.767 939.901, 942.189 941.329 C 941.173 942.248, 939.521 943, 938.516 943 C 936.305 943, 929.421 950.016, 928.502 953.207 C 928.138 954.468, 927.200 956.921, 926.417 958.659 C 925.634 960.396, 924.921 963.659, 924.832 965.909 C 924.744 968.159, 924.323 970, 923.897 970 C 923.181 970, 922.647 972.876, 921.655 982.063 C 921.443 984.023, 920.705 986.683, 920.014 987.974 C 919.261 989.380, 918.706 994.571, 918.629 1000.923 C 918.511 1010.599, 918.695 1011.734, 920.730 1013.929 C 924.702 1018.213, 928.305 1019.987, 933.050 1019.993 C 935.553 1019.997, 938.065 1020.465, 938.633 1021.033 C 939.310 1021.710, 948.748 1021.935, 966.083 1021.686 C 991.921 1021.314, 1004.109 1020.172, 1004.815 1018.055 C 1005.008 1017.475, 1005.692 1016.999, 1006.333 1016.999 C 1009.733 1016.995, 1017.256 1007.006, 1018.403 1000.973 C 1018.766 999.063, 1019.699 995.250, 1020.475 992.500 C 1022.876 983.995, 1024.113 977.815, 1025.066 969.558 C 1025.571 965.190, 1026.437 961.163, 1026.992 960.608 C 1028.670 958.930, 1028.261 947.314, 1026.500 946.638 C 1025.675 946.322, 1024.996 945.486, 1024.992 944.781 C 1024.988 944.077, 1023.750 942.890, 1022.242 942.145 C 1018.901 940.494, 1003.998 938.021, 998.500 938.205 C 996.300 938.279, 983.146 938.636, 969.268 938.998 M 569.874 939.633 C 568.715 939.965, 568.054 941.803, 567.577 946.019 C 567.209 949.275, 566.478 952.204, 565.954 952.529 C 565.429 952.853, 565 955.285, 565 957.933 C 565 960.582, 564.325 964.662, 563.500 967 C 562.675 969.338, 562 973.220, 562 975.626 L 562 980 599.504 980 C 633.316 980, 637.327 979.828, 640.259 978.250 C 643.829 976.329, 648 972.495, 648 971.135 C 648 970.659, 648.983 969.020, 650.185 967.492 C 652.095 965.064, 652.376 963.442, 652.420 954.568 C 652.466 945.336, 652.264 944.200, 650.179 941.961 L 647.888 939.500 609.694 939.334 C 588.687 939.243, 570.768 939.377, 569.874 939.633 M 749.399 939.725 C 748.793 940.151, 748.033 941.625, 747.708 943 C 747.384 944.375, 746.670 947.300, 746.121 949.500 C 743.767 958.944, 742.648 965.887, 742.577 971.500 L 742.500 977.500 780 977.500 C 808.619 977.500, 818.388 977.186, 821.250 976.172 C 823.313 975.442, 825 974.430, 825 973.922 C 825 973.415, 825.575 973, 826.278 973 C 827.844 973, 830.862 969.625, 833.287 965.160 C 834.636 962.674, 835.111 959.563, 835.142 953.002 C 835.180 945.060, 834.952 943.952, 832.843 941.842 L 830.502 939.500 790.501 939.225 C 768.500 939.074, 750.005 939.299, 749.399 939.725 M 1532.295 947.683 C 1531.913 948.682, 1530.791 950.372, 1529.800 951.439 C 1528.810 952.505, 1528 953.919, 1528 954.582 C 1528 955.244, 1527.325 956.045, 1526.500 956.362 C 1525.675 956.678, 1525 957.401, 1525 957.969 C 1525 958.536, 1524.100 959.900, 1523 961 C 1521.900 962.100, 1521 963.675, 1521 964.500 C 1521 965.325, 1520.580 966, 1520.067 966 C 1519.554 966, 1518.849 966.900, 1518.500 968 C 1518.151 969.100, 1517.221 970, 1516.433 970 C 1515.645 970, 1515 970.845, 1515 971.878 C 1515 972.910, 1514.325 974.315, 1513.500 975 C 1512.675 975.685, 1512 976.879, 1512 977.654 C 1512 978.429, 1511.325 979.322, 1510.500 979.638 C 1509.675 979.955, 1509 980.771, 1509 981.452 C 1509 982.133, 1508.100 983.505, 1507 984.500 C 1505.900 985.495, 1505 987.140, 1505 988.155 C 1505 989.170, 1504.325 990, 1503.500 990 C 1502.675 990, 1502 990.638, 1502 991.417 C 1502 992.196, 1501.469 993.010, 1500.820 993.227 C 1500.161 993.446, 1499.927 994.366, 1500.289 995.310 C 1500.875 996.837, 1503.427 996.999, 1526.719 996.985 C 1540.898 996.976, 1553.122 996.575, 1553.883 996.094 C 1555.042 995.359, 1555.002 994.840, 1553.633 992.886 C 1552.735 991.604, 1552 989.753, 1552 988.774 C 1552 987.794, 1551.100 985.314, 1550 983.261 C 1548.900 981.209, 1548 978.371, 1548 976.956 C 1548 975.540, 1547.339 973.509, 1546.532 972.441 C 1545.724 971.374, 1545.035 969.600, 1545 968.500 C 1544.965 967.400, 1544.276 965.626, 1543.468 964.559 C 1542.661 963.491, 1542 961.648, 1542 960.463 C 1542 959.277, 1541.299 956.902, 1540.443 955.185 C 1539.586 953.468, 1538.791 950.811, 1538.676 949.282 C 1538.509 947.057, 1537.919 946.437, 1535.728 946.183 C 1533.809 945.961, 1532.781 946.410, 1532.295 947.683" stroke="none" fill="#0b1018" fill-rule="evenodd"/><path d="M 166.500 952 C 166.160 952.550, 166.584 953, 167.441 953 C 168.298 953, 169 952.550, 169 952 C 169 951.450, 168.577 951, 168.059 951 C 167.541 951, 166.840 951.450, 166.500 952 M 146.579 960.872 C 146.267 961.377, 142.296 962.117, 137.756 962.515 C 133.215 962.913, 129.223 963.677, 128.884 964.212 C 128.498 964.821, 127.548 964.735, 126.342 963.982 C 124.788 963.011, 122.963 963.186, 116.894 964.889 C 112.757 966.050, 108.250 967, 106.877 967 C 105.505 967, 103.509 967.661, 102.441 968.468 C 101.374 969.276, 99.318 969.951, 97.872 969.968 C 96.427 969.986, 94.685 970.675, 94 971.500 C 93.315 972.325, 91.947 973, 90.960 973 C 88.719 973, 76.097 979.503, 73.716 981.884 C 73.102 982.498, 71.776 983, 70.769 983 C 69.761 983, 68.678 983.675, 68.362 984.500 C 68.045 985.325, 67.163 986, 66.401 986 C 65.640 986, 64.455 986.900, 63.768 988 C 63.081 989.100, 61.975 990, 61.309 990 C 60.644 990, 59.740 990.596, 59.300 991.325 C 58.860 992.054, 57.713 992.940, 56.750 993.294 C 55.788 993.648, 55 994.626, 55 995.469 C 55 996.311, 54.567 997, 54.039 997 C 53.510 997, 52.566 998.913, 51.941 1001.250 C 51.316 1003.587, 50.442 1005.950, 49.999 1006.500 C 49.555 1007.050, 48.874 1010.074, 48.485 1013.220 C 48.096 1016.366, 47.152 1019.459, 46.389 1020.093 C 45.556 1020.783, 45 1023.170, 45 1026.051 C 45 1028.990, 44.417 1031.440, 43.500 1032.357 C 42.654 1033.203, 42 1035.647, 42 1037.964 C 42 1040.222, 41.328 1043.096, 40.506 1044.350 C 39.685 1045.604, 38.718 1048.851, 38.357 1051.565 C 37.997 1054.279, 37.094 1057.388, 36.351 1058.473 C 35.608 1059.557, 34.986 1062.482, 34.968 1064.973 C 34.951 1067.463, 34.276 1070.374, 33.468 1071.441 C 32.661 1072.509, 31.986 1075.209, 31.968 1077.441 C 31.951 1079.674, 31.302 1082.338, 30.526 1083.362 C 29.751 1084.386, 28.815 1087.635, 28.446 1090.582 C 28.078 1093.529, 27.152 1096.459, 26.389 1097.093 C 25.496 1097.833, 25 1100.315, 25 1104.039 C 25 1107.226, 24.564 1109.983, 24.031 1110.167 C 23.498 1110.350, 22.797 1112.300, 22.473 1114.500 C 21.690 1119.813, 20.912 1122.383, 19.883 1123.048 C 18.300 1124.072, 17.072 1141.405, 18.483 1142.816 C 19.365 1143.698, 46.397 1143.644, 47.635 1142.758 C 48.259 1142.312, 51.859 1142.408, 55.635 1142.972 C 59.504 1143.551, 75.893 1143.890, 93.193 1143.749 C 123.653 1143.502, 123.902 1143.483, 125.998 1141.232 C 127.242 1139.897, 128.484 1136.667, 129.020 1133.378 C 129.520 1130.304, 130.428 1127.190, 131.037 1126.456 C 131.646 1125.722, 132.037 1123.857, 131.906 1122.311 C 131.604 1118.749, 132.974 1113, 134.125 1113 C 134.606 1113, 135.015 1110.188, 135.034 1106.750 C 135.056 1102.680, 135.742 1099.105, 137 1096.500 C 138.063 1094.300, 138.950 1091.150, 138.972 1089.500 C 138.994 1087.850, 139.685 1085.211, 140.506 1083.636 C 141.328 1082.060, 142 1079.304, 142 1077.511 C 142 1075.718, 142.675 1072.338, 143.500 1070 C 144.325 1067.662, 145 1064.739, 145 1063.505 C 145 1062.270, 145.900 1058.443, 147 1055 C 148.100 1051.557, 149.014 1047.111, 149.032 1045.120 C 149.049 1043.129, 149.724 1040.626, 150.532 1039.559 C 151.355 1038.471, 152 1035.483, 152 1032.759 C 152 1030.087, 152.612 1026.686, 153.359 1025.200 C 154.107 1023.715, 154.986 1020.455, 155.312 1017.955 C 155.638 1015.456, 156.599 1012.081, 157.447 1010.455 C 158.294 1008.830, 158.990 1005.418, 158.994 1002.872 C 158.998 1000.063, 159.568 997.774, 160.446 997.045 C 161.506 996.165, 161.646 995.199, 160.971 993.423 C 160.464 992.090, 160.431 991, 160.897 991 C 161.363 991, 162.032 989.200, 162.384 987 C 162.736 984.800, 163.404 983, 163.869 983 C 164.335 983, 165.004 980.234, 165.358 976.852 C 165.711 973.471, 166.481 970.125, 167.069 969.416 C 168.576 967.601, 166.793 964.633, 162.763 962.248 C 159.274 960.183, 147.617 959.192, 146.579 960.872 M 1010 1117.977 C 1010 1118.514, 1008.313 1118.943, 1006.250 1118.929 C 999.158 1118.881, 991.797 1120.029, 989.678 1121.513 C 988.510 1122.331, 986.366 1123, 984.912 1123 C 983.459 1123, 981.126 1123.900, 979.727 1125 C 978.329 1126.100, 976.886 1127, 976.521 1127 C 976.156 1127, 975.227 1127.563, 974.456 1128.250 C 973.685 1128.938, 971.280 1130.850, 969.112 1132.500 C 966.943 1134.150, 964.911 1136.175, 964.596 1137 C 964.281 1137.825, 963.138 1139.850, 962.057 1141.500 C 957.775 1148.033, 955 1154.325, 955 1157.501 C 955 1159.337, 954.275 1163.668, 953.389 1167.127 C 952.175 1171.866, 952.052 1173.853, 952.889 1175.194 C 954.398 1177.611, 954.285 1178.323, 952.500 1177.638 C 951.422 1177.225, 951 1177.741, 951 1179.472 C 951 1180.798, 951.392 1182.124, 951.871 1182.420 C 952.350 1182.716, 953.032 1184.430, 953.388 1186.229 C 954.322 1190.961, 959.098 1200, 960.664 1200 C 961.399 1200, 962 1200.675, 962 1201.500 C 962 1202.325, 962.450 1203, 963 1203 C 963.550 1203, 964.900 1203.900, 966 1205 C 967.100 1206.100, 968.900 1207, 970 1207 C 971.100 1207, 972 1207.430, 972 1207.955 C 972 1208.480, 973.688 1209.212, 975.750 1209.581 C 977.813 1209.951, 980.175 1210.813, 981 1211.496 C 982.247 1212.530, 987.651 1213.315, 1000.250 1214.293 C 1001.212 1214.367, 1002 1214.782, 1002 1215.214 C 1002 1216.469, 1029.773 1216.180, 1030.193 1214.921 C 1030.391 1214.327, 1034.355 1213.581, 1039.007 1213.262 C 1043.656 1212.943, 1048.001 1212.141, 1048.663 1211.480 C 1049.325 1210.818, 1051.696 1209.984, 1053.933 1209.627 C 1056.170 1209.269, 1058 1208.588, 1058 1208.113 C 1058 1207.638, 1059.336 1206.983, 1060.969 1206.656 C 1063.671 1206.116, 1068 1202.876, 1068 1201.394 C 1068 1200.582, 1073.310 1196.438, 1073.976 1196.731 C 1075.055 1197.206, 1075.896 1191.517, 1075.342 1187.481 C 1074.564 1181.804, 1071.475 1180.065, 1061.304 1179.577 C 1052.025 1179.133, 1048 1179.752, 1048 1181.625 C 1048 1182.381, 1047.373 1183, 1046.607 1183 C 1045.841 1183, 1044.955 1183.675, 1044.638 1184.500 C 1044.322 1185.325, 1043.434 1186, 1042.666 1186 C 1041.898 1186, 1040.100 1186.920, 1038.670 1188.045 C 1037.240 1189.169, 1035.827 1190.024, 1035.529 1189.944 C 1035.232 1189.865, 1029.479 1190.096, 1022.744 1190.458 C 1012.368 1191.017, 1002.630 1190.464, 990.714 1188.639 C 989.731 1188.489, 987.369 1186.051, 985.464 1183.222 C 982.363 1178.619, 982 1177.372, 982 1171.339 C 982 1163.959, 984.757 1153, 986.613 1153 C 987.257 1153, 988.063 1151.883, 988.406 1150.518 C 988.749 1149.153, 990.372 1147.342, 992.014 1146.493 C 993.657 1145.643, 995 1144.510, 995 1143.974 C 995 1143.438, 996.518 1143, 998.374 1143 C 1000.230 1143, 1003.637 1142.334, 1005.945 1141.519 C 1008.627 1140.573, 1014.443 1139.986, 1022.064 1139.894 C 1037.343 1139.707, 1045.234 1141.725, 1051.815 1147.500 C 1055.950 1151.129, 1056.844 1151.484, 1061.437 1151.328 C 1071.120 1150.998, 1075.957 1149.900, 1077.515 1147.676 C 1081.322 1142.239, 1077.441 1132.618, 1068.423 1125.138 C 1067.831 1124.647, 1066.256 1123.904, 1064.923 1123.488 C 1063.590 1123.071, 1061.612 1122.116, 1060.527 1121.365 C 1059.443 1120.614, 1056.685 1120, 1054.400 1120 C 1052.114 1120, 1048.629 1119.325, 1046.654 1118.500 C 1042.440 1116.739, 1010 1116.276, 1010 1117.977 M 1282 1118.659 C 1269.640 1119.858, 1268 1120.199, 1268 1121.572 C 1268 1122.357, 1267.274 1123, 1266.387 1123 C 1265.130 1123, 1264.884 1123.719, 1265.273 1126.250 C 1265.597 1128.354, 1265.233 1130.114, 1264.241 1131.240 C 1263.398 1132.197, 1262.518 1135.347, 1262.285 1138.240 C 1262.052 1141.133, 1261.380 1144.487, 1260.792 1145.694 C 1260.203 1146.901, 1259.962 1149.683, 1260.257 1151.877 C 1260.642 1154.749, 1260.401 1156.016, 1259.396 1156.402 C 1258.626 1156.697, 1258 1158.297, 1258 1159.969 C 1258 1161.636, 1257.604 1163, 1257.119 1163 C 1256.634 1163, 1255.917 1167.275, 1255.526 1172.500 C 1255.123 1177.870, 1254.367 1182, 1253.786 1182 C 1253.154 1182, 1252.920 1184.221, 1253.178 1187.780 C 1253.540 1192.789, 1253.285 1193.889, 1251.261 1196.030 C 1249.192 1198.220, 1248.979 1199.222, 1249.382 1204.869 C 1249.633 1208.372, 1250.346 1211.746, 1250.967 1212.367 C 1251.668 1213.068, 1256.272 1213.496, 1263.134 1213.498 C 1273.990 1213.500, 1274.212 1213.454, 1276.586 1210.694 C 1278.320 1208.679, 1279 1206.690, 1279 1203.635 C 1279 1201.296, 1279.661 1198.509, 1280.468 1197.441 C 1281.276 1196.374, 1281.951 1193.902, 1281.968 1191.950 C 1281.986 1189.997, 1282.540 1187.860, 1283.200 1187.200 C 1285.089 1185.311, 1312.920 1185.555, 1315.674 1187.484 C 1316.840 1188.301, 1320.427 1192.894, 1323.647 1197.691 C 1326.866 1202.489, 1331.017 1207.936, 1332.872 1209.796 L 1336.244 1213.178 1349.372 1213.654 C 1356.592 1213.916, 1363.016 1213.764, 1363.647 1213.315 C 1365.871 1211.734, 1365.747 1203, 1363.500 1203 C 1362.675 1203, 1362 1202.325, 1362 1201.500 C 1362 1200.675, 1361.539 1200, 1360.975 1200 C 1360.412 1200, 1359.523 1198.875, 1359 1197.500 C 1358.477 1196.125, 1357.597 1195, 1357.044 1195 C 1356.491 1195, 1355.756 1193.875, 1355.411 1192.500 C 1355.066 1191.125, 1354.157 1190, 1353.392 1190 C 1352.626 1190, 1352 1189.148, 1352 1188.107 C 1352 1187.066, 1351.258 1185.929, 1350.350 1185.581 C 1348.899 1185.024, 1348.981 1184.649, 1351.025 1182.474 C 1352.303 1181.113, 1354.221 1180, 1355.287 1180 C 1356.359 1180, 1360.047 1177.094, 1363.536 1173.500 C 1367.007 1169.925, 1370.332 1167, 1370.924 1167 C 1371.516 1167, 1372 1165.411, 1372 1163.469 C 1372 1161.252, 1372.559 1159.723, 1373.500 1159.362 C 1375.504 1158.593, 1375.703 1138.828, 1373.723 1137.185 C 1373.021 1136.603, 1372.344 1134.885, 1372.218 1133.369 C 1372.093 1131.853, 1371.655 1130.362, 1371.245 1130.056 C 1370.835 1129.750, 1370.024 1128.636, 1369.442 1127.580 C 1368.860 1126.525, 1366.640 1125.057, 1364.508 1124.319 C 1362.377 1123.581, 1359.876 1122.293, 1358.952 1121.456 C 1357.618 1120.250, 1352.437 1119.740, 1333.885 1118.992 C 1311.419 1118.086, 1289.371 1117.945, 1282 1118.659 M 1158.847 1119.650 C 1157.388 1119.905, 1155.363 1121.270, 1154.347 1122.683 C 1153.331 1124.095, 1151.487 1126.497, 1150.250 1128.020 C 1149.013 1129.543, 1148 1131.080, 1148 1131.437 C 1148 1132.197, 1146.495 1134.145, 1142.903 1138.036 C 1141.474 1139.583, 1139.746 1142.200, 1139.061 1143.852 C 1138.377 1145.505, 1137.183 1147.100, 1136.408 1147.397 C 1135.634 1147.694, 1135 1148.421, 1135 1149.013 C 1135 1149.605, 1132.776 1153.026, 1130.059 1156.616 C 1127.316 1160.239, 1125.360 1163.775, 1125.663 1164.563 C 1125.971 1165.366, 1125.435 1166.279, 1124.430 1166.665 C 1122.325 1167.473, 1119 1170.645, 1119 1171.845 C 1119 1172.310, 1118.100 1173.505, 1117 1174.500 C 1115.900 1175.495, 1115 1176.929, 1115 1177.686 C 1115 1178.443, 1114.325 1179.322, 1113.500 1179.638 C 1112.675 1179.955, 1112 1180.775, 1112 1181.461 C 1112 1182.147, 1110.875 1183.922, 1109.500 1185.405 C 1108.125 1186.889, 1107 1188.950, 1107 1189.984 C 1107 1191.019, 1106.152 1192.135, 1105.114 1192.464 C 1103.161 1193.084, 1098 1199.781, 1098 1201.697 C 1098 1202.296, 1097.299 1203.055, 1096.442 1203.384 C 1095.295 1203.824, 1094.965 1205.105, 1095.192 1208.241 C 1095.497 1212.463, 1095.541 1212.508, 1100.250 1213.418 C 1102.862 1213.922, 1105 1214.710, 1105 1215.168 C 1105 1215.625, 1106.575 1216, 1108.500 1216 C 1110.425 1216, 1112 1215.601, 1112 1215.114 C 1112 1214.626, 1114.057 1213.919, 1116.572 1213.541 C 1120.923 1212.889, 1125 1210.193, 1125 1207.969 C 1125 1207.401, 1125.675 1206.678, 1126.500 1206.362 C 1127.325 1206.045, 1128 1205.205, 1128 1204.496 C 1128 1203.786, 1129.225 1201.809, 1130.723 1200.103 L 1133.445 1197 1161.068 1197 C 1186.558 1197, 1188.818 1197.141, 1190.345 1198.829 C 1191.255 1199.835, 1192 1201.579, 1192 1202.706 C 1192 1203.833, 1192.675 1205.315, 1193.500 1206 C 1194.325 1206.685, 1195 1207.765, 1195 1208.400 C 1195 1209.036, 1195.966 1210.382, 1197.146 1211.393 C 1198.817 1212.824, 1201.528 1213.338, 1209.396 1213.718 C 1215.117 1213.994, 1220.617 1213.766, 1222.075 1213.194 C 1224.359 1212.297, 1224.675 1211.565, 1224.872 1206.716 C 1225.040 1202.563, 1224.721 1201.107, 1223.546 1200.656 C 1222.696 1200.330, 1222 1199.235, 1222 1198.223 C 1222 1197.210, 1221.339 1195.509, 1220.532 1194.441 C 1219.724 1193.374, 1219.049 1191.773, 1219.032 1190.885 C 1219.014 1189.997, 1218.100 1188.126, 1217 1186.727 C 1215.900 1185.329, 1215 1183.243, 1215 1182.092 C 1215 1180.942, 1214.586 1180, 1214.079 1180 C 1213.573 1180, 1212.849 1178.591, 1212.471 1176.869 C 1212.093 1175.147, 1210.257 1171.134, 1208.392 1167.951 C 1206.526 1164.768, 1205 1161.420, 1205 1160.510 C 1205 1159.601, 1204.325 1158.182, 1203.500 1157.357 C 1202.675 1156.532, 1202 1154.750, 1202 1153.397 C 1202 1152.044, 1201.325 1150.678, 1200.500 1150.362 C 1199.675 1150.045, 1199 1148.799, 1199 1147.592 C 1199 1145.044, 1196.847 1140.019, 1195.750 1140.008 C 1195.338 1140.004, 1195 1138.930, 1195 1137.622 C 1195 1136.315, 1194.325 1134.685, 1193.500 1134 C 1192.675 1133.315, 1192 1131.508, 1192 1129.985 C 1192 1128.444, 1191.334 1126.958, 1190.500 1126.638 C 1189.675 1126.322, 1189 1125.443, 1189 1124.686 C 1189 1123.929, 1188.079 1122.477, 1186.954 1121.458 C 1185.240 1119.907, 1183.001 1119.572, 1173.204 1119.395 C 1166.767 1119.280, 1160.306 1119.394, 1158.847 1119.650 M 1420.194 1119.711 C 1415.600 1120.300, 1413.695 1123.915, 1412.041 1135.178 C 1411.288 1140.305, 1410.311 1145.175, 1409.871 1146 C 1409.431 1146.825, 1408.623 1151.100, 1408.076 1155.500 C 1406.767 1166.026, 1403.696 1181.642, 1402.750 1182.586 C 1402.338 1182.997, 1401.984 1184.721, 1401.964 1186.417 C 1401.945 1188.112, 1401.277 1192.200, 1400.480 1195.500 C 1398.820 1202.374, 1398.594 1209.809, 1399.978 1212 C 1400.800 1213.301, 1407.561 1213.500, 1450.850 1213.500 L 1500.773 1213.500 1502.853 1211 C 1504.558 1208.951, 1504.939 1207.101, 1504.967 1200.750 C 1504.994 1194.513, 1504.707 1193, 1503.500 1193 C 1502.675 1193, 1502 1192.550, 1502 1192 C 1502 1191.354, 1490.408 1190.995, 1469.250 1190.986 C 1451.237 1190.979, 1435.527 1190.712, 1434.337 1190.392 C 1432.514 1189.903, 1432.121 1188.956, 1431.837 1184.354 C 1431.652 1181.352, 1431.928 1178.469, 1432.450 1177.948 C 1433.008 1177.391, 1446.267 1177, 1464.552 1177 L 1495.703 1177 1498.852 1173.991 C 1501.747 1171.224, 1502 1170.464, 1502 1164.526 C 1502 1158.879, 1501.718 1157.909, 1499.750 1156.785 C 1498.097 1155.841, 1489.761 1155.416, 1468.331 1155.183 C 1447.017 1154.951, 1439.054 1154.547, 1438.759 1153.683 C 1438.538 1153.032, 1438.543 1150.407, 1438.771 1147.850 L 1439.186 1143.199 1443.843 1142.350 C 1446.404 1141.882, 1461.775 1141.500, 1478 1141.500 C 1514.801 1141.500, 1515.010 1141.433, 1514.985 1129.595 C 1514.976 1125.693, 1514.543 1121.825, 1514.022 1121 C 1513.204 1119.706, 1506.931 1119.485, 1468.287 1119.394 C 1443.654 1119.335, 1422.012 1119.478, 1420.194 1119.711 M 1312.324 1141.402 C 1312.771 1142.567, 1311.217 1142.713, 1303.118 1142.267 C 1290.244 1141.557, 1289.433 1142.023, 1288.751 1150.509 C 1288.456 1154.185, 1287.568 1157.849, 1286.742 1158.798 C 1283.396 1162.643, 1285.194 1163, 1307.883 1163 C 1323.441 1163, 1329.940 1163.340, 1330.800 1164.200 C 1331.733 1165.133, 1332 1165.133, 1332 1164.200 C 1332 1163.509, 1333.401 1163, 1335.304 1163 C 1337.739 1163, 1339.462 1162.119, 1341.855 1159.649 C 1344.653 1156.763, 1345.130 1155.523, 1345.301 1150.703 C 1345.426 1147.195, 1345.014 1144.620, 1344.197 1143.803 C 1343.258 1142.865, 1339.619 1142.536, 1331.197 1142.627 C 1324.763 1142.697, 1320.063 1142.547, 1320.750 1142.294 C 1321.438 1142.041, 1322 1141.421, 1322 1140.917 C 1322 1139.530, 1318.240 1139.819, 1317.662 1141.250 C 1317.259 1142.250, 1317.142 1142.250, 1317.079 1141.250 C 1317.036 1140.563, 1315.827 1140, 1314.393 1140 C 1312.568 1140, 1311.947 1140.420, 1312.324 1141.402 M 1165.150 1150 C 1164.575 1151.650, 1163.631 1153, 1163.052 1153 C 1162.473 1153, 1162 1153.900, 1162 1155 C 1162 1156.100, 1161.540 1157, 1160.979 1157 C 1160.417 1157, 1159.414 1158.237, 1158.750 1159.750 C 1158.085 1161.263, 1156.970 1162.860, 1156.271 1163.300 C 1155.572 1163.740, 1155 1164.752, 1155 1165.550 C 1155 1166.347, 1154.550 1167, 1154 1167 C 1153.450 1167, 1153 1167.612, 1153 1168.360 C 1153 1169.108, 1151.875 1170.565, 1150.500 1171.597 C 1147.668 1173.724, 1147.293 1175, 1149.500 1175 C 1150.325 1175, 1151 1174.607, 1151 1174.127 C 1151 1173.646, 1157.011 1173.483, 1164.357 1173.763 C 1174.361 1174.145, 1177.906 1173.962, 1178.479 1173.033 C 1178.901 1172.352, 1178.324 1169.703, 1177.198 1167.147 C 1176.072 1164.591, 1174.104 1159.800, 1172.825 1156.501 C 1170.568 1150.676, 1168.266 1147, 1166.876 1147 C 1166.502 1147, 1165.725 1148.350, 1165.150 1150 M 507.114 1164.879 C 505.267 1166.299, 504.727 1167.667, 504.727 1170.921 C 504.727 1173.234, 505.261 1175.661, 505.914 1176.314 C 507.709 1178.109, 904.157 1178.028, 904.756 1176.232 C 904.988 1175.535, 905.813 1174.329, 906.589 1173.554 C 909.493 1170.649, 908.078 1167.656, 902.188 1164.250 C 899.468 1162.676, 853.461 1162.445, 852.500 1164 C 852.160 1164.550, 849.434 1165, 846.441 1165 C 843.448 1165, 841 1164.550, 841 1164 C 841 1163.450, 839.425 1163, 837.500 1163 C 835.575 1163, 834 1163.450, 834 1164 C 834 1164.611, 829.333 1165, 822 1165 C 814.667 1165, 810 1164.611, 810 1164 C 810 1162.437, 785.295 1162.681, 784.662 1164.250 C 784.259 1165.250, 784.142 1165.250, 784.079 1164.250 C 784.030 1163.471, 782.491 1163, 780 1163 C 777.475 1163, 775.994 1163.461, 775.985 1164.250 C 775.973 1165.201, 775.788 1165.214, 775.211 1164.307 C 774.241 1162.782, 726.891 1162.967, 725.765 1164.500 C 725.297 1165.138, 725.025 1165.087, 725.015 1164.360 C 724.993 1162.728, 641.434 1162.716, 638.799 1164.348 C 637.412 1165.207, 636.756 1165.211, 636.219 1164.363 C 635.231 1162.800, 523 1162.617, 523 1164.179 C 523 1164.917, 522.593 1164.907, 521.676 1164.146 C 520.707 1163.342, 520.004 1163.376, 519.051 1164.274 C 518.023 1165.243, 517.654 1165.238, 517.292 1164.250 C 516.602 1162.368, 509.835 1162.787, 507.114 1164.879 M 1557.855 1165.446 C 1556.214 1167.151, 1555.481 1169.109, 1555.438 1171.903 C 1555.386 1175.293, 1555.773 1176.077, 1557.940 1176.975 C 1559.728 1177.716, 1623.525 1177.956, 1768.742 1177.768 L 1976.981 1177.500 1979.491 1174.794 C 1982.726 1171.304, 1982.662 1168.946, 1979.250 1165.930 C 1976.629 1163.614, 1975.806 1163.490, 1961.750 1163.296 C 1952.917 1163.174, 1947 1163.475, 1947 1164.046 C 1947 1165.227, 1939.317 1165.322, 1938.593 1164.150 C 1937.728 1162.751, 1709.116 1162.925, 1706.732 1164.327 C 1705.184 1165.238, 1704.638 1165.221, 1704.286 1164.250 C 1703.751 1162.773, 1697 1162.542, 1697 1164 C 1697 1165.297, 1684.314 1165.317, 1683.513 1164.020 C 1683.132 1163.404, 1682.171 1163.497, 1680.923 1164.270 C 1679.437 1165.191, 1678.758 1165.210, 1678.219 1164.348 C 1677.345 1162.948, 1598 1162.725, 1598 1164.122 C 1598 1164.605, 1597.325 1165, 1596.500 1165 C 1595.675 1165, 1595 1164.550, 1595 1164 C 1595 1162.553, 1591.260 1162.769, 1590.662 1164.250 C 1590.259 1165.250, 1590.142 1165.250, 1590.079 1164.250 C 1589.981 1162.702, 1575 1162.453, 1575 1164 C 1575 1164.550, 1574.127 1165, 1573.059 1165 C 1571.991 1165, 1570.840 1164.550, 1570.500 1164 C 1570.160 1163.450, 1567.706 1163, 1565.046 1163 C 1561.224 1163, 1559.716 1163.513, 1557.855 1165.446" stroke="none" fill="#0b5fe6" fill-rule="evenodd"/></svg>